HIERARCHY
ROOT hips
{
  OFFSET 0 10.6860622 2.3727825e-15
  CHANNELS 6 Xposition Yposition Zposition Yrotation Xrotation Zrotation
  JOINT leftUpperLeg
  {
    OFFSET 0.6642549969 -0.9402397400000004 0
    CHANNELS 3 Yrotation Xrotation Zrotation
    JOINT leftLowerLeg
    {
      OFFSET 0 -3.997221335632195 0
      CHANNELS 3 Yrotation Xrotation Zrotation
      JOINT leftFoot
      {
        OFFSET -0.13777839790000004 -4.6145792000000005 -0.22186036399999998
        CHANNELS 3 Yrotation Xrotation Zrotation
        JOINT leftToes
        {
          OFFSET -0.03777410834999995 -0.9130806927000008 0.85230013
          CHANNELS 3 Yrotation Xrotation Zrotation
          End Site
          {
            OFFSET -0.03777410834999995 -0.9130806927000008 0.85230013
          }
        }
      }
    }
  }
  JOINT rightUpperLeg
  {
    OFFSET -0.6642778626 -0.9402397400000004 0
    CHANNELS 3 Yrotation Xrotation Zrotation
    JOINT rightLowerLeg
    {
      OFFSET 0 -3.997221452859387 0
      CHANNELS 3 Yrotation Xrotation Zrotation
      JOINT rightFoot
      {
        OFFSET 0.1377926176 -4.6145792000000005 -0.22185782299999995
        CHANNELS 3 Yrotation Xrotation Zrotation
        JOINT rightToes
        {
          OFFSET 0.037780746850000047 -0.9130806927000008 0.85230167
          CHANNELS 3 Yrotation Xrotation Zrotation
          End Site
          {
            OFFSET 0.037780746850000047 -0.9130806927000008 0.85230167
          }
        }
      }
    }
  }
  JOINT spine
  {
    OFFSET 0 0.13988381660000015 0
    CHANNELS 3 Yrotation Xrotation Zrotation
    JOINT chest
    {
      OFFSET 0 0.6191039003973773 0
      CHANNELS 3 Yrotation Xrotation Zrotation
      JOINT upperChest
      {
        OFFSET 0 0.9855186130586943 0
        CHANNELS 3 Yrotation Xrotation Zrotation
        JOINT leftShoulder
        {
          OFFSET 0.1807663869 1.5087829790000005 0
          CHANNELS 3 Yrotation Xrotation Zrotation
          JOINT leftUpperArm
          {
            OFFSET 0.5985063006419806 0 0
            CHANNELS 3 Yrotation Xrotation Zrotation
            JOINT leftLowerArm
            {
              OFFSET 2.2993332369501065 0 0
              CHANNELS 3 Yrotation Xrotation Zrotation
              JOINT leftHand
              {
                OFFSET 2.395047042602395 0 0
                CHANNELS 3 Yrotation Xrotation Zrotation
                JOINT leftIndexProximal
                {
                  OFFSET 0.5766295810000004 0.04556643899499946 0.17265095988184
                  CHANNELS 3 Yrotation Xrotation Zrotation
                  JOINT leftIndexIntermediate
                  {
                    OFFSET 0.2957229000000008 -0.019352197700001517 -0.007932640616999987
                    CHANNELS 3 Yrotation Xrotation Zrotation
                    JOINT leftIndexDistal
                    {
                      OFFSET 0.19008243099999922 -0.012484908149998475 -0.002786250786000012
                      CHANNELS 3 Yrotation Xrotation Zrotation
                      End Site
                      {
                        OFFSET 0.19008243099999922 -0.012484908149998475 -0.002786250786000012
                      }
                    }
                  }
                }
                JOINT leftMiddleProximal
                {
                  OFFSET 0.5834975091000001 0.0524350405149987 0.02204081888183999
                  CHANNELS 3 Yrotation Xrotation Zrotation
                  JOINT leftMiddleIntermediate
                  {
                    OFFSET 0.33880573540000003 -0.019871473270000717 -0.00000971183179999946
                    CHANNELS 3 Yrotation Xrotation Zrotation
                    JOINT leftMiddleDistal
                    {
                      OFFSET 0.20676022730000088 -0.012221336379999448 0.0001471936708000235
                      CHANNELS 3 Yrotation Xrotation Zrotation
                      End Site
                      {
                        OFFSET 0.20676022730000088 -0.012221336379999448 0.0001471936708000235
                      }
                    }
                  }
                }
                JOINT leftLittleProximal
                {
                  OFFSET 0.5344154683999995 -0.012880921405001189 -0.24414037221816004
                  CHANNELS 3 Yrotation Xrotation Zrotation
                  JOINT leftLittleIntermediate
                  {
                    OFFSET 0.21758961730000093 -0.011650919939999227 0.011893592810000034
                    CHANNELS 3 Yrotation Xrotation Zrotation
                    JOINT leftLittleDistal
                    {
                      OFFSET 0.1475273964999999 -0.008152365682999818 0.006001092492999946
                      CHANNELS 3 Yrotation Xrotation Zrotation
                      End Site
                      {
                        OFFSET 0.1475273964999999 -0.008152365682999818 0.006001092492999946
                      }
                    }
                  }
                }
                JOINT leftRingProximal
                {
                  OFFSET 0.5799399463000003 0.026911854694997794 -0.12150566991816003
                  CHANNELS 3 Yrotation Xrotation Zrotation
                  JOINT leftRingIntermediate
                  {
                    OFFSET 0.26167887460000006 -0.013480186499999602 0.010996293000000053
                    CHANNELS 3 Yrotation Xrotation Zrotation
                    JOINT leftRingDistal
                    {
                      OFFSET 0.17667108799999987 -0.008990287899999228 0.0055541023999999065
                      CHANNELS 3 Yrotation Xrotation Zrotation
                      End Site
                      {
                        OFFSET 0.17667108799999987 -0.008990287899999228 0.0055541023999999065
                      }
                    }
                  }
                }
                JOINT leftThumbProximal
                {
                  OFFSET 0.11018806699999972 -0.09448718900500053 0.17047963138184
                  CHANNELS 3 Yrotation Xrotation Zrotation
                  JOINT leftThumbIntermediate
                  {
                    OFFSET 0.31062601459999983 -0.08126270900000132 0.15443142000000007
                    CHANNELS 3 Yrotation Xrotation Zrotation
                    JOINT leftThumbDistal
                    {
                      OFFSET 0.21627175790000086 -0.08833193599999878 0.018771167799999988
                      CHANNELS 3 Yrotation Xrotation Zrotation
                      End Site
                      {
                        OFFSET 0.21627175790000086 -0.08833193599999878 0.018771167799999988
                      }
                    }
                  }
                }
              }
            }
          }
        }
        JOINT neck
        {
          OFFSET 0 1.5463305265074576 0
          CHANNELS 3 Yrotation Xrotation Zrotation
          JOINT head
          {
            OFFSET 0 0.8456443600000344 0
            CHANNELS 3 Yrotation Xrotation Zrotation
            JOINT leftEye
            {
              OFFSET 0.30408573140000006 0.5104519199999995 0.1276382305
              CHANNELS 3 Yrotation Xrotation Zrotation
              End Site
              {
                OFFSET 0.30408573140000006 0.5104519199999995 0.1276382305
              }
            }
            JOINT rightEye
            {
              OFFSET -0.30409491089999996 0.5104519199999995 0.1276379445
              CHANNELS 3 Yrotation Xrotation Zrotation
              End Site
              {
                OFFSET -0.30409491089999996 0.5104519199999995 0.1276379445
              }
            }
            JOINT jaw
            {
              OFFSET -3.155239131000001e-7 -0.11984121820000082 0.60178107
              CHANNELS 3 Yrotation Xrotation Zrotation
              End Site
              {
                OFFSET -3.155239131000001e-7 -0.11984121820000082 0.60178107
              }
            }
          }
        }
        JOINT rightShoulder
        {
          OFFSET -0.1807303465 1.5087829790000005 0
          CHANNELS 3 Yrotation Xrotation Zrotation
          JOINT rightUpperArm
          {
            OFFSET -0.5985063796536958 0 0
            CHANNELS 3 Yrotation Xrotation Zrotation
            JOINT rightLowerArm
            {
              OFFSET -2.2993322059002854 0 0
              CHANNELS 3 Yrotation Xrotation Zrotation
              JOINT rightHand
              {
                OFFSET -2.395045314457259 0 0
                CHANNELS 3 Yrotation Xrotation Zrotation
                JOINT rightIndexProximal
                {
                  OFFSET -0.5764487688300002 0.0441371204405987 0.17361932004999997
                  CHANNELS 3 Yrotation Xrotation Zrotation
                  JOINT rightIndexIntermediate
                  {
                    OFFSET -0.29573011380000047 -0.01934826376999843 -0.007698921482999974
                    CHANNELS 3 Yrotation Xrotation Zrotation
                    JOINT rightIndexDistal
                    {
                      OFFSET -0.19008373999999884 -0.012503266380000655 -0.0026365778999999897
                      CHANNELS 3 Yrotation Xrotation Zrotation
                      End Site
                      {
                        OFFSET -0.19008373999999884 -0.012503266380000655 -0.0026365778999999897
                      }
                    }
                  }
                }
                JOINT rightMiddleProximal
                {
                  OFFSET -0.5834852037300005 0.05211639405060153 0.02307162440000001
                  CHANNELS 3 Yrotation Xrotation Zrotation
                  JOINT rightMiddleIntermediate
                  {
                    OFFSET -0.33880114510000003 -0.019952774050000954 0.0002455003561999819
                    CHANNELS 3 Yrotation Xrotation Zrotation
                    JOINT rightMiddleDistal
                    {
                      OFFSET -0.20675694929999955 -0.012273788999999091 0.00030209124000002766
                      CHANNELS 3 Yrotation Xrotation Zrotation
                      End Site
                      {
                        OFFSET -0.20675694929999955 -0.012273788999999091 0.00030209124000002766
                      }
                    }
                  }
                }
                JOINT rightLittleProximal
                {
                  OFFSET -0.5346811737299992 -0.011214256288399227 -0.24363941305000003
                  CHANNELS 3 Yrotation Xrotation Zrotation
                  JOINT rightLittleIntermediate
                  {
                    OFFSET -0.21757715980000092 -0.011771559690000988 0.01201554387
                    CHANNELS 3 Yrotation Xrotation Zrotation
                    JOINT rightLittleDistal
                    {
                      OFFSET -0.1475201849000004 -0.00822055339600003 0.006082065407000015
                      CHANNELS 3 Yrotation Xrotation Zrotation
                      End Site
                      {
                        OFFSET -0.1475201849000004 -0.00822055339600003 0.006082065407000015
                      }
                    }
                  }
                }
                JOINT rightRingProximal
                {
                  OFFSET -0.5800810755299999 0.027657985680600072 -0.12066365025000003
                  CHANNELS 3 Yrotation Xrotation Zrotation
                  JOINT rightRingIntermediate
                  {
                    OFFSET -0.26166445029999974 -0.013623118409999302 0.011164098990000045
                    CHANNELS 3 Yrotation Xrotation Zrotation
                    JOINT rightRingDistal
                    {
                      OFFSET -0.17666387530000027 -0.009072900100000503 0.005668185599999959
                      CHANNELS 3 Yrotation Xrotation Zrotation
                      End Site
                      {
                        OFFSET -0.17666387530000027 -0.009072900100000503 0.005668185599999959
                      }
                    }
                  }
                }
                JOINT rightThumbProximal
                {
                  OFFSET -0.10997596379000074 -0.09577489355940072 0.16989765924999997
                  CHANNELS 3 Yrotation Xrotation Zrotation
                  JOINT rightThumbIntermediate
                  {
                    OFFSET -0.31036620999999986 -0.08229339117999834 0.15440884469999996
                    CHANNELS 3 Yrotation Xrotation Zrotation
                    JOINT rightThumbDistal
                    {
                      OFFSET -0.21631306399999906 -0.08825326400000111 0.018656797720000014
                      CHANNELS 3 Yrotation Xrotation Zrotation
                      End Site
                      {
                        OFFSET -0.21631306399999906 -0.08825326400000111 0.018656797720000014
                      }
                    }
                  }
                }
              }
            }
          }
        }
      }
    }
  }
}
MOTION
Frames: 8
Frame Time: 0.03333333333333333
7.596631477816442 -10.079673579887734 0 -175.8706902190785 86.45171406964464 -175.89543015162155 0.03590904208291431 -5.129546135523887 -0.8817897400956608 17.280682616427683 83.15593168180703 7.701602377774552 15.463337866767606 6.795196794761114 15.929622341024704 0 0 0 -0.16312823998216483 -5.140327743665992 0.36885265720853694 -60.988425546989816 69.99811218325716 -51.971942433224804 -6.007559397462754 19.787618721749705 -12.31912534801856 0 0 0 0.4588197306447336 -21.206137385646333 -2.3373657978729376 -0.48552728645620996 -22.347554077051942 0.1698386226022168 0 0 0 0.025759621736044843 1.3347641303337436 -8.002015108760572 -50.10836801699846 -35.53743553718627 -23.636588911246232 -69.69257274633665 23.99945041326511 9.758467799503899 7.580744999583067 23.772712246985115 15.946574349569001 0 0 0 0 0 0 0 0 0 0 0 0 0 0 0 0 0 0 0 0 0 0 0 0 0 0 0 0 0 0 0 0 0 0 0 0 0 0 0 0 0 0 0 0 0 -21.570561974996576 -3.89626130637365 1.7792031093696894 -1.5684910411875228 0.6497736123043827 20.676996705199183 0 0 0 0 0 0 0 0 0 -0.02924340624329659 1.3350069881234694 7.998423010697295 50.104791006620204 -35.53493008110908 23.634167892717176 56.127332299956905 41.06355758702725 -35.86618037825314 -7.705987780311409 1.2535472916904304 17.39911176345448 0 0 0 0 0 0 0 0 0 0 0 0 0 0 0 0 0 0 0 0 0 0 0 0 0 0 0 0 0 0 0 0 0 0 0 0 0 0 0 0 0 0 0 0 0
7.596631477816442 -10.079673579887734 0 -175.8706902190785 86.45171406964464 -175.89543015162155 0.03590904208291431 -5.129546135523887 -0.8817897400956608 18.277773787096788 83.38585825343023 8.405443184849544 15.463337866767606 6.795196794761114 15.929622341024704 0 0 0 -0.16312823998216483 -5.140327743665992 0.36885265720853694 -61.09390448153414 70.01115558121245 -51.99902630151436 -6.007559397462754 19.787615092353644 -12.31912534801856 0 0 0 0.45881970131090133 -21.206135554074258 -2.3373657978729376 -0.48552728645620996 -22.347552230844236 0.169838593755348 0 0 0 0.025759621736044843 1.3347641303337436 -8.002015108760572 -50.108358885349176 -35.53743553718627 -23.63659275597203 -69.53649126265427 24.36715865950753 10.17718671231129 7.329754532977934 23.352383734738055 15.443972617581098 0 0 0 0 0 0 0 0 0 0 0 0 0 0 0 0 0 0 0 0 0 0 0 0 0 0 0 0 0 0 0 0 0 0 0 0 0 0 0 0 0 0 0 0 0 -21.157672665952337 -3.8005496140606 1.7263405499663962 -1.5454190260452936 0.6329606352080831 20.28404086329591 0 0 0 0 0 0 0 0 0 -0.029243402907338244 1.3350069881234694 7.998422164999694 50.104791006620204 -35.53493008110908 23.634167892717176 56.127332299956905 41.06355758702725 -35.86618037825314 -7.705987780311409 1.2535472916904304 17.39911176345448 0 0 0 0 0 0 0 0 0 0 0 0 0 0 0 0 0 0 0 0 0 0 0 0 0 0 0 0 0 0 0 0 0 0 0 0 0 0 0 0 0 0 0 0 0
7.596631477816442 -10.079673579887734 0 -175.8706902190785 86.45171406964464 -175.89543015162155 0.03590904208291431 -5.129546135523887 -0.8817897400956608 19.336252761325326 83.6143839073913 9.170631534807404 15.463337866767606 6.795196794761114 15.929622341024704 0 0 0 -0.16312823998216483 -5.140327743665992 0.36885265720853694 -61.19937002769067 70.02416716074512 -52.02609445416133 -6.007559397462754 19.787615092353644 -12.31912534801856 0 0 0 0.45881970131090133 -21.206135554074258 -2.3373657978729376 -0.48552728645620996 -22.347552230844236 0.169838593755348 0 0 0 0.025759621736044843 1.3347641303337436 -8.002015108760572 -50.108358885349176 -35.53743553718627 -23.63659275597203 -69.37686282947296 24.734115254209957 10.598589650905947 7.0832742881108075 22.929553739375873 14.944360119427936 0 0 0 0 0 0 0 0 0 0 0 0 0 0 0 0 0 0 0 0 0 0 0 0 0 0 0 0 0 0 0 0 0 0 0 0 0 0 0 0 0 0 0 0 0 -20.744702333370068 -3.704410921993166 1.6741500387168358 -1.5222221691555125 0.616300386847039 19.890909611203693 0 0 0 0 0 0 0 0 0 -0.029243402907338244 1.3350069881234694 7.998422164999694 50.104791006620204 -35.53493008110908 23.634167892717176 56.127332299956905 41.06355758702725 -35.86618037825314 -7.705987780311409 1.2535472916904304 17.39911176345448 0 0 0 0 0 0 0 0 0 0 0 0 0 0 0 0 0 0 0 0 0 0 0 0 0 0 0 0 0 0 0 0 0 0 0 0 0 0 0 0 0 0 0 0 0
7.596631477816442 -10.079673579887734 0 -175.8706902190785 86.45171406964464 -175.89543015162155 0.03590904208291431 -5.129546135523887 -0.8817897400956608 20.46244629426991 83.84129356765632 10.003497185920699 15.463337866767606 6.795196794761114 15.929622341024704 0 0 0 -0.16312823998216483 -5.140327743665992 0.36885265720853694 -61.30498300771963 70.0371768715434 -52.05331160286459 -6.007559397462754 19.787615092353644 -12.31912534801856 0 0 0 0.4588197306447336 -21.206137385646333 -2.3373657978729376 -0.48552728645620996 -22.347552230844236 0.169838593755348 0 0 0 0.025759621736044843 1.3347641303337436 -8.002015108760572 -50.108358885349176 -35.53743553718627 -23.63659275597203 -69.21366286356485 25.10029286357022 11.022710479691726 6.841292189273193 22.504304222364258 14.447717762459797 0 0 0 0 0 0 0 0 0 0 0 0 0 0 0 0 0 0 0 0 0 0 0 0 0 0 0 0 0 0 0 0 0 0 0 0 0 0 0 0 0 0 0 0 0 -20.331647915614827 -3.6078463836871135 1.6226319040158994 -1.498900031883227 0.5997902495348763 19.497589117868998 0 0 0 0 0 0 0 0 0 -0.029243402907338244 1.3350069881234694 7.998422164999694 50.104791006620204 -35.53493008110908 23.634167892717176 56.12732413447863 41.06356211644256 -35.86617772449543 -7.705987780311409 1.2535472916904304 17.39911176345448 0 0 0 0 0 0 0 0 0 0 0 0 0 0 0 0 0 0 0 0 0 0 0 0 0 0 0 0 0 0 0 0 0 0 0 0 0 0 0 0 0 0 0 0 0
7.596631477816442 -10.079673579887734 0 -175.8706902190785 86.45171406964464 -175.89543015162155 0.03590904208291431 -5.129546135523887 -0.8817897400956608 21.663494109475238 84.06634030861827 10.911190463892726 15.463337866767606 6.795196794761114 15.929622341024704 0 0 0 -0.16312823998216483 -5.140327743665992 0.36885265720853694 -61.410646871409625 70.05015468331585 -52.08057774760561 -6.007559397462754 19.787615092353644 -12.31912534801856 0 0 0 0.45881970131090133 -21.206135554074258 -2.3373657978729376 -0.48552728645620996 -22.347552230844236 0.169838593755348 0 0 0 0.025759621736044843 1.3347641303337436 -8.002015108760572 -50.108358885349176 -35.53743553718627 -23.63659275597203 -69.04683375484387 25.46563334662758 11.44959560086137 6.603781595302796 22.07668222404058 13.954007082226648 0 0 0 0 0 0 0 0 0 0 0 0 0 0 0 0 0 0 0 0 0 0 0 0 0 0 0 0 0 0 0 0 0 0 0 0 0 0 0 0 0 0 0 0 0 -19.918527501072372 -3.51086976235737 1.5717957922849695 -1.4754562486489862 0.583435129976345 19.10409979174086 0 0 0 0 0 0 0 0 0 -0.029243402907338244 1.3350069881234694 7.998422164999694 50.104791006620204 -35.53493008110908 23.634167892717176 56.127332299956905 41.06355758702725 -35.86618037825314 -7.705987780311409 1.2535472916904304 17.39911176345448 0 0 0 0 0 0 0 0 0 0 0 0 0 0 0 0 0 0 0 0 0 0 0 0 0 0 0 0 0 0 0 0 0 0 0 0 0 0 0 0 0 0 0 0 0
7.596631477816442 -10.079673579887734 0 -175.8706902190785 86.45171406964464 -175.89543015162155 0.03590904208291431 -5.129546135523887 -0.8817897400956608 22.947621486557118 84.28937706532417 11.901930103543028 15.463337866767606 6.795196794761114 15.929622341024704 0 0 0 -0.16312823998216483 -5.140327743665992 0.36885265720853694 -61.51638996360945 70.06312056774617 -52.107923409540966 -6.007559397462754 19.787615092353644 -12.31912534801856 0 0 0 0.45881970131090133 -21.206135554074258 -2.3373657978729376 -0.48552728645620996 -22.347552230844236 0.169838593755348 0 0 0 0.025759621736044843 1.3347641303337436 -8.002015108760572 -50.108358885349176 -35.53743553718627 -23.63659275597203 -68.8763465536646 25.830090908938978 11.879268848151534 6.3707238715671455 21.646753681593385 13.463194788238495 0 0 0 0 0 0 0 0 0 0 0 0 0 0 0 0 0 0 0 0 0 0 0 0 0 0 0 0 0 0 0 0 0 0 0 0 0 0 0 0 0 0 0 0 0 -19.505349825975983 -3.4134845453455123 1.521643088080552 -1.4518913252305026 0.5672353990121357 18.710452115392712 0 0 0 0 0 0 0 0 0 -0.029243402907338244 1.3350069881234694 7.998422164999694 50.104791006620204 -35.53493008110908 23.634167892717176 56.127332299956905 41.06355758702725 -35.86618037825314 -7.705987780311409 1.2535472916904304 17.39911176345448 0 0 0 0 0 0 0 0 0 0 0 0 0 0 0 0 0 0 0 0 0 0 0 0 0 0 0 0 0 0 0 0 0 0 0 0 0 0 0 0 0 0 0 0 0
7.596631477816442 -10.079673579887734 0 -175.8706902190785 86.45171406964464 -175.89543015162155 0.03590904208291431 -5.129546135523887 -0.8817897400956608 24.323866259904932 84.51005623850996 12.984772554112313 15.463337866767606 6.795196794761114 15.929622341024704 0 0 0 -0.16312823998216483 -5.140327743665992 0.36885265720853694 -61.6222265304344 70.0760745031621 -52.13536407218285 -6.007559397462754 19.787615092353644 -12.31912534801856 0 0 0 0.45881970131090133 -21.206135554074258 -2.3373657978729376 -0.48552728645620996 -22.347552230844236 0.169838593755348 0 0 0 0.025759621736044843 1.3347641303337436 -8.002015108760572 -50.108358885349176 -35.53743553718627 -23.63659275597203 -68.7021924509258 26.193639887966544 12.311779473166482 6.14210375164576 21.214595827823008 12.975258970669367 0 0 0 0 0 0 0 0 0 0 0 0 0 0 0 0 0 0 0 0 0 0 0 0 0 0 0 0 0 0 0 0 0 0 0 0 0 0 0 0 0 0 0 0 0 -19.09212074448621 -3.3156991294280616 1.4721797916575357 -1.428207170433177 0.5511910006601891 18.3166484905915 0 0 0 0 0 0 0 0 0 -0.029243402907338244 1.3350069881234694 7.998422164999694 50.104791006620204 -35.53493008110908 23.634167892717176 56.127332299956905 41.06355758702725 -35.86618037825314 -7.705987780311409 1.2535472916904304 17.39911176345448 0 0 0 0 0 0 0 0 0 0 0 0 0 0 0 0 0 0 0 0 0 0 0 0 0 0 0 0 0 0 0 0 0 0 0 0 0 0 0 0 0 0 0 0 0
7.596631477816442 -10.079673579887734 0 -175.8706902190785 86.45171406964464 -175.89543015162155 0.03590904208291431 -5.129546135523887 -0.8817897400956608 25.8027787530213 84.72808623516332 14.170254602527093 15.463337866767606 6.795196794761114 15.929622341024704 0 0 0 -0.16312823998216483 -5.140327743665992 0.36885265720853694 -61.728165155839775 70.08900643997089 -52.162903377630464 -6.007559397462754 19.787615092353644 -12.31912534801856 0 0 0 0.45881970131090133 -21.206135554074258 -2.3373657978729376 -0.48552728645620996 -22.347552230844236 0.169838593755348 0 0 0 0.025759621736044843 1.3347641303337436 -8.002015108760572 -50.108358885349176 -35.53743553718627 -23.63659275597203 -68.52429751848868 26.55621396980858 12.747160208126418 5.917891949067523 20.780258687467814 12.49015451105988 0 0 0 0 0 0 0 0 0 0 0 0 0 0 0 0 0 0 0 0 0 0 0 0 0 0 0 0 0 0 0 0 0 0 0 0 0 0 0 0 0 0 0 0 0 -18.67885360876043 -3.2175216876977744 1.423409152347469 -1.4044048396018838 0.5353048673635525 17.922711236751663 0 0 0 0 0 0 0 0 0 -0.029243402907338244 1.3350069881234694 7.998422164999694 50.104791006620204 -35.53493008110908 23.634167892717176 56.12732853928194 41.06355758702725 -35.86618404883517 -7.705987780311409 1.2535472916904304 17.39911176345448 0 0 0 0 0 0 0 0 0 0 0 0 0 0 0 0 0 0 0 0 0 0 0 0 0 0 0 0 0 0 0 0 0 0 0 0 0 0 0 0 0 0 0 0 0
